<svg width="580" height="400" xmlns="http://www.w3.org/2000/svg">
 <!-- Created with Method Draw - http://github.com/duopixel/Method-Draw/ -->
 <g>
  <title>Layer 1</title>
  <polyline stroke-linecap="round" id="svg_5" points="923.5,93 923.5,93 " fill-opacity="null" stroke-opacity="null" stroke-width="1.5" stroke="#000" fill="none"/>
  <path id="svg_8" d="m396.904623,68.095391" opacity="0.5" fill-opacity="null" stroke-opacity="null" stroke-width="1.5" stroke="#000" fill="#BBBBBB"/>
  <path id="svg_10" d="m422.351825,14.999961" opacity="0.5" fill-opacity="null" stroke-opacity="null" stroke-width="1.5" stroke="#000" fill="none"/>
  <path id="svg_15" d="m170.178706,297.142501" opacity="0.5" stroke-opacity="null" stroke-width="1.5" stroke="#000" fill="#BBBBBB"/>
  <path id="svg_16" d="m396.249863,63.571352c0,0 3.928567,19.285692 -24.285685,44.642804c-28.214252,25.357112 -182.499781,163.21409 -182.499781,163.21409c0,0 -21.532651,13.492557 -45.357089,14.64284c-23.824438,1.150283 64.401296,58.060309 64.118993,57.833918c1.176729,21.735388 -0.190498,-24.619673 16.238054,-41.048224c16.428551,-16.428552 191.428342,-175.714075 191.428342,-175.714075c0,0 18.214264,-13.928554 52.499937,-14.999982c34.285673,-1.071428 -72.142771,-48.571371 -72.142771,-48.571371z" stroke-opacity="null" stroke-width="1.5" stroke="#000" fill="#BBBBBB"/>
  <path id="svg_12" d="m452.500149,8.437494c0,0 -11.250004,-4.375001 -32.187511,9.687503c-20.937507,14.062505 -24.062508,30.31251 -24.062508,30.31251c0,0 -6.875002,22.812508 19.687507,43.437515c26.562509,20.625006 48.125016,22.812507 63.125021,18.125006c15.000004,-4.687502 22.187507,-25.937509 22.500007,-54.687518c0.3125,-28.75001 -8.437503,-13.125005 -8.437503,-13.125005c0,0 -17.812506,27.812509 -17.812506,27.812509c0,0 -15.000005,10.937504 -30.31251,0.625001c-15.312505,-10.312504 -15.937505,-24.375008 -7.187502,-36.250012c8.750003,-11.875004 15.000005,-20.937507 14.687507,-21.249999c1.874998,-3.750009 -0.000002,-4.68751 -0.000002,-4.68751z" stroke-opacity="null" stroke-width="1.5" stroke="#000" fill="#BBBBBB"/>
  <path id="svg_13" d="m100.312533,365.000111c-5.728873,-3.698066 -5.000002,-38.437512 -2.187501,-44.687514c2.812501,-6.250002 8.437503,-27.500009 26.250009,-33.125011c17.812506,-5.625002 44.062514,1.25 60.00002,16.875005c15.937505,15.625006 32.18751,35.000012 20.625006,60.62502c-11.562503,25.625009 -50.625016,33.750011 -55.000018,32.500011c-4.375001,-1.25 -2.812501,-4.687501 -0.9375,-8.125003c1.875001,-3.437501 19.687506,-27.812509 19.375007,-28.124999c0.312499,0.31249 4.687501,-17.500016 -7.812503,-28.125019c-12.500004,-10.625004 -29.06251,-12.500004 -39.687514,6.250002c-18.385571,29.219203 -14.896133,29.635574 -20.625006,25.937508z" stroke-opacity="null" stroke-width="1.5" stroke="#000" fill="#BBBBBB"/>
 </g>
</svg>