<?xml version="1.0" encoding="utf-8"?>
<svg width="14" height="20" viewBox="0 0 14 20" fill="none" xmlns="http://www.w3.org/2000/svg">
<path d="M14 6.72229C14 5.83951 13.8189 4.96537 13.4672 4.14978C13.1154 3.3342 12.5998 2.59314 11.9497 1.96891C11.2997 1.34469 10.5281 0.849531 9.67878 0.511704C8.82951 0.173877 7.91925 0 7 0C6.08075 0 5.17049 0.173877 4.32122 0.511704C3.47194 0.849531 2.70026 1.34469 2.05025 1.96891C1.40024 2.59314 0.884626 3.3342 0.532843 4.14978C0.18106 4.96537 -1.36979e-08 5.83951 0 6.72229C0 8.05426 0.41 9.29309 1.105 10.3379H1.097C3.457 13.8863 7 19.2065 7 19.2065L12.903 10.3379H12.896C13.6164 9.25887 13.9995 8.00408 14 6.72229V6.72229ZM7 9.60327C6.20435 9.60327 5.44129 9.29974 4.87868 8.75945C4.31607 8.21916 4 7.48637 4 6.72229C4 5.95821 4.31607 5.22542 4.87868 4.68513C5.44129 4.14484 6.20435 3.84131 7 3.84131C7.79565 3.84131 8.55871 4.14484 9.12132 4.68513C9.68393 5.22542 10 5.95821 10 6.72229C10 7.48637 9.68393 8.21916 9.12132 8.75945C8.55871 9.29974 7.79565 9.60327 7 9.60327Z" fill="white"/>
</svg>
